<svg width="30.000000" height="30.000000" viewBox="0 0 30 30" fill="none" xmlns="http://www.w3.org/2000/svg" xmlns:xlink="http://www.w3.org/1999/xlink">
	<desc>
			Created with Pixso.
	</desc>
	<defs/>
	<path id="icon" d="M15 0C6.70508 0 0 6.70499 0 15C0 23.295 6.70508 30 15 30C23.2949 30 30 23.295 30 15C30 6.70499 23.2949 0 15 0ZM15 27C8.38477 27 3 21.615 3 15C3 8.38501 8.38477 3 15 3C21.6152 3 27 8.38501 27 15C27 21.615 21.6152 27 15 27ZM15 12.885L20.3848 7.5L22.5 9.61499L17.1152 15L22.5 20.385L20.3848 22.5L15 17.115L9.61523 22.5L7.5 20.385L12.8848 15L7.5 9.61499L9.61523 7.5L15 12.885Z" fill="#49454F" fill-opacity="1.000000" fill-rule="evenodd"/>
</svg>
