<svg width="20.000000" height="20.000000" viewBox="0 0 20 20" fill="none" xmlns="http://www.w3.org/2000/svg" xmlns:xlink="http://www.w3.org/1999/xlink">
	<desc>
			Created with Pixso.
	</desc>
	<defs/>
	<path id="Vector" d="M18 0L2 0C0.900024 0 0 0.899994 0 2L0 18C0 19.1 0.900024 20 2 20L18 20C19.1 20 20 19.1 20 18L20 2C20 0.899994 19.1 0 18 0ZM6 18L3 18C2.44995 18 2 17.55 2 17L2 14L6 14L6 18ZM6 12L2 12L2 8L6 8L6 12ZM6 6L2 6L2 3C2 2.45001 2.44995 2 3 2L6 2L6 6ZM12 18L8 18L8 14L12 14L12 18ZM12 12L8 12L8 8L12 8L12 12ZM12 6L8 6L8 2L12 2L12 6ZM17 18L14 18L14 14L18 14L18 17C18 17.55 17.55 18 17 18ZM18 12L14 12L14 8L18 8L18 12ZM18 6L14 6L14 2L17 2C17.55 2 18 2.45001 18 3L18 6Z" fill="#6750A4" fill-opacity="1.000000" fill-rule="nonzero"/>
</svg>
