<svg width="18.000000" height="14.000000" viewBox="0 0 18 14" fill="none" xmlns="http://www.w3.org/2000/svg" xmlns:xlink="http://www.w3.org/1999/xlink">
	<desc>
			Created with Pixso.
	</desc>
	<defs/>
	<path id="Vector" d="M1 9L3 9C3.54999 9 4 8.54999 4 8L4 6C4 5.45001 3.54999 5 3 5L1 5C0.450012 5 0 5.45001 0 6L0 8C0 8.54999 0.450012 9 1 9ZM1 14L3 14C3.54999 14 4 13.55 4 13L4 11C4 10.45 3.54999 10 3 10L1 10C0.450012 10 0 10.45 0 11L0 13C0 13.55 0.450012 14 1 14ZM1 4L3 4C3.54999 4 4 3.54999 4 3L4 1C4 0.450012 3.54999 0 3 0L1 0C0.450012 0 0 0.450012 0 1L0 3C0 3.54999 0.450012 4 1 4ZM6 9L17 9C17.55 9 18 8.54999 18 8L18 6C18 5.45001 17.55 5 17 5L6 5C5.45001 5 5 5.45001 5 6L5 8C5 8.54999 5.45001 9 6 9ZM6 14L17 14C17.55 14 18 13.55 18 13L18 11C18 10.45 17.55 10 17 10L6 10C5.45001 10 5 10.45 5 11L5 13C5 13.55 5.45001 14 6 14ZM5 1L5 3C5 3.54999 5.45001 4 6 4L17 4C17.55 4 18 3.54999 18 3L18 1C18 0.450012 17.55 0 17 0L6 0C5.45001 0 5 0.450012 5 1Z" fill="#6750A4" fill-opacity="1.000000" fill-rule="nonzero"/>
</svg>
